# xmcd
#
# Track frame offsets: 
#        150
#        24191
#        44483
#        58598
#        71455
#        87010
#        109955
#        126908
#        156477
#        183828
#        200433
#
# Disc length: 2889 seconds
#
# Revision: 1
# Processed by: cddbd v1.5.2PL0 Copyright (c) Steve Scherf et al.
# Submitted via: ExactAudioCopyFreeDBPlugin 1.0
#
DISCID=920b470b
DTITLE=Kenny Neal - I'll Be Home for Christmas
DYEAR=2015
DGENRE=Holidays
TTITLE0=Christmas Comes Once a Year
TTITLE1=Silver Bells
TTITLE2=Winter Wonderland
TTITLE3=Merry Little Christmas
TTITLE4=Please Come Home for Christmas
TTITLE5=I'll Be Home for Christmas
TTITLE6=Merry Christmas Baby #2
TTITLE7=Lonesome Christmas
TTITLE8=Merry Christmas Baby #1
TTITLE9=Oh Come All Ye Faithful
TTITLE10=Silent Night
EXTD=YEAR: 2006
EXTT0=
EXTT1=
EXTT2=
EXTT3=
EXTT4=
EXTT5=
EXTT6=
EXTT7=
EXTT8=
EXTT9=
EXTT10=
PLAYORDER=
